<svg width="118" height="19" viewBox="0 0 118 19" fill="none" xmlns="http://www.w3.org/2000/svg">
<path d="M0.55625 8.502L8.29625 5.244L8.99825 7.422L3.34625 9.618L8.99825 11.814L8.29625 13.992L0.55625 10.734V8.502ZM19.6787 15C19.5467 14.568 19.3967 14.124 19.2287 13.668C19.0727 13.212 18.9167 12.756 18.7607 12.3H13.9007C13.7447 12.756 13.5827 13.212 13.4147 13.668C13.2587 14.124 13.1147 14.568 12.9827 15H10.0667C10.5347 13.656 10.9787 12.414 11.3987 11.274C11.8187 10.134 12.2267 9.06 12.6227 8.052C13.0307 7.044 13.4267 6.09 13.8107 5.19C14.2067 4.278 14.6147 3.39 15.0347 2.526H17.7167C18.1247 3.39 18.5267 4.278 18.9227 5.19C19.3187 6.09 19.7147 7.044 20.1107 8.052C20.5187 9.06 20.9327 10.134 21.3527 11.274C21.7727 12.414 22.2167 13.656 22.6847 15H19.6787ZM16.3127 5.352C16.2527 5.532 16.1627 5.778 16.0427 6.09C15.9227 6.402 15.7847 6.762 15.6287 7.17C15.4727 7.578 15.2987 8.028 15.1067 8.52C14.9267 9.012 14.7407 9.528 14.5487 10.068H18.0947C17.9027 9.528 17.7167 9.012 17.5367 8.52C17.3567 8.028 17.1827 7.578 17.0147 7.17C16.8587 6.762 16.7207 6.402 16.6007 6.09C16.4807 5.778 16.3847 5.532 16.3127 5.352ZM24.1194 5.856C24.5754 5.724 25.1634 5.604 25.8834 5.496C26.6034 5.376 27.3594 5.316 28.1514 5.316C28.9554 5.316 29.6214 5.424 30.1494 5.64C30.6894 5.844 31.1154 6.138 31.4274 6.522C31.7394 6.906 31.9614 7.362 32.0934 7.89C32.2254 8.418 32.2914 9.006 32.2914 9.654V15H29.6094V9.978C29.6094 9.114 29.4954 8.502 29.2674 8.142C29.0394 7.782 28.6134 7.602 27.9894 7.602C27.7974 7.602 27.5934 7.614 27.3774 7.638C27.1614 7.65 26.9694 7.668 26.8014 7.692V15H24.1194V5.856ZM37.005 10.194C37.005 11.022 37.191 11.688 37.563 12.192C37.935 12.696 38.487 12.948 39.219 12.948C39.459 12.948 39.681 12.942 39.885 12.93C40.089 12.906 40.257 12.882 40.389 12.858V7.98C40.221 7.872 39.999 7.782 39.723 7.71C39.459 7.638 39.189 7.602 38.913 7.602C37.641 7.602 37.005 8.466 37.005 10.194ZM43.071 14.694C42.831 14.766 42.555 14.838 42.243 14.91C41.931 14.97 41.601 15.024 41.253 15.072C40.917 15.12 40.569 15.156 40.209 15.18C39.861 15.216 39.525 15.234 39.201 15.234C38.421 15.234 37.725 15.12 37.113 14.892C36.501 14.664 35.985 14.34 35.565 13.92C35.145 13.488 34.821 12.972 34.593 12.372C34.377 11.76 34.269 11.076 34.269 10.32C34.269 9.552 34.365 8.862 34.557 8.25C34.749 7.626 35.025 7.098 35.385 6.666C35.745 6.234 36.183 5.904 36.699 5.676C37.227 5.448 37.827 5.334 38.499 5.334C38.871 5.334 39.201 5.37 39.489 5.442C39.789 5.514 40.089 5.616 40.389 5.748V1.464L43.071 1.032V14.694ZM51.2883 7.908C51.0483 7.848 50.7663 7.788 50.4423 7.728C50.1183 7.656 49.7703 7.62 49.3983 7.62C49.2303 7.62 49.0263 7.638 48.7863 7.674C48.5583 7.698 48.3843 7.728 48.2643 7.764V15H45.5823V6.036C46.0623 5.868 46.6263 5.712 47.2743 5.568C47.9343 5.412 48.6663 5.334 49.4703 5.334C49.6143 5.334 49.7883 5.346 49.9923 5.37C50.1963 5.382 50.4003 5.406 50.6043 5.442C50.8083 5.466 51.0123 5.502 51.2163 5.55C51.4203 5.586 51.5943 5.634 51.7383 5.694L51.2883 7.908ZM52.5502 10.338C52.5502 9.498 52.6762 8.766 52.9282 8.142C53.1922 7.506 53.5342 6.978 53.9542 6.558C54.3742 6.138 54.8542 5.82 55.3942 5.604C55.9462 5.388 56.5102 5.28 57.0862 5.28C58.4302 5.28 59.4922 5.694 60.2722 6.522C61.0522 7.338 61.4422 8.544 61.4422 10.14C61.4422 10.296 61.4362 10.47 61.4242 10.662C61.4122 10.842 61.4002 11.004 61.3882 11.148H55.3042C55.3642 11.7 55.6222 12.138 56.0782 12.462C56.5342 12.786 57.1462 12.948 57.9142 12.948C58.4062 12.948 58.8862 12.906 59.3542 12.822C59.8342 12.726 60.2242 12.612 60.5242 12.48L60.8842 14.658C60.7402 14.73 60.5482 14.802 60.3082 14.874C60.0682 14.946 59.7982 15.006 59.4982 15.054C59.2102 15.114 58.8982 15.162 58.5622 15.198C58.2262 15.234 57.8902 15.252 57.5542 15.252C56.7022 15.252 55.9582 15.126 55.3222 14.874C54.6982 14.622 54.1762 14.28 53.7562 13.848C53.3482 13.404 53.0422 12.882 52.8382 12.282C52.6462 11.682 52.5502 11.034 52.5502 10.338ZM58.8502 9.312C58.8382 9.084 58.7962 8.862 58.7242 8.646C58.6642 8.43 58.5622 8.238 58.4182 8.07C58.2862 7.902 58.1122 7.764 57.8962 7.656C57.6922 7.548 57.4342 7.494 57.1222 7.494C56.8222 7.494 56.5642 7.548 56.3482 7.656C56.1322 7.752 55.9522 7.884 55.8082 8.052C55.6642 8.22 55.5502 8.418 55.4662 8.646C55.3942 8.862 55.3402 9.084 55.3042 9.312H58.8502ZM66.5 12.714C66.632 12.726 66.782 12.738 66.95 12.75C67.13 12.75 67.34 12.75 67.58 12.75C68.984 12.75 70.022 12.396 70.694 11.688C71.378 10.98 71.72 10.002 71.72 8.754C71.72 7.446 71.396 6.456 70.748 5.784C70.1 5.112 69.074 4.776 67.67 4.776C67.478 4.776 67.28 4.782 67.076 4.794C66.872 4.794 66.68 4.806 66.5 4.83V12.714ZM74.618 8.754C74.618 9.834 74.45 10.776 74.114 11.58C73.778 12.384 73.298 13.05 72.674 13.578C72.062 14.106 71.312 14.502 70.424 14.766C69.536 15.03 68.54 15.162 67.436 15.162C66.932 15.162 66.344 15.138 65.672 15.09C65 15.054 64.34 14.97 63.692 14.838V2.688C64.34 2.568 65.012 2.49 65.708 2.454C66.416 2.406 67.022 2.382 67.526 2.382C68.594 2.382 69.56 2.502 70.424 2.742C71.3 2.982 72.05 3.36 72.674 3.876C73.298 4.392 73.778 5.052 74.114 5.856C74.45 6.66 74.618 7.626 74.618 8.754ZM76.3334 10.338C76.3334 9.498 76.4594 8.766 76.7114 8.142C76.9754 7.506 77.3174 6.978 77.7374 6.558C78.1574 6.138 78.6374 5.82 79.1774 5.604C79.7294 5.388 80.2934 5.28 80.8694 5.28C82.2134 5.28 83.2754 5.694 84.0554 6.522C84.8354 7.338 85.2254 8.544 85.2254 10.14C85.2254 10.296 85.2194 10.47 85.2074 10.662C85.1954 10.842 85.1834 11.004 85.1714 11.148H79.0874C79.1474 11.7 79.4054 12.138 79.8614 12.462C80.3174 12.786 80.9294 12.948 81.6974 12.948C82.1894 12.948 82.6694 12.906 83.1374 12.822C83.6174 12.726 84.0074 12.612 84.3074 12.48L84.6674 14.658C84.5234 14.73 84.3314 14.802 84.0914 14.874C83.8514 14.946 83.5814 15.006 83.2814 15.054C82.9934 15.114 82.6814 15.162 82.3454 15.198C82.0094 15.234 81.6734 15.252 81.3374 15.252C80.4854 15.252 79.7414 15.126 79.1054 14.874C78.4814 14.622 77.9594 14.28 77.5394 13.848C77.1314 13.404 76.8254 12.882 76.6214 12.282C76.4294 11.682 76.3334 11.034 76.3334 10.338ZM82.6334 9.312C82.6214 9.084 82.5794 8.862 82.5074 8.646C82.4474 8.43 82.3454 8.238 82.2014 8.07C82.0694 7.902 81.8954 7.764 81.6794 7.656C81.4754 7.548 81.2174 7.494 80.9054 7.494C80.6054 7.494 80.3474 7.548 80.1314 7.656C79.9154 7.752 79.7354 7.884 79.5914 8.052C79.4474 8.22 79.3334 8.418 79.2494 8.646C79.1774 8.862 79.1234 9.084 79.0874 9.312H82.6334ZM89.8692 15C89.2572 13.8 88.6332 12.396 87.9972 10.788C87.3732 9.18 86.7792 7.428 86.2152 5.532H89.0592C89.1792 6 89.3172 6.51 89.4732 7.062C89.6412 7.602 89.8092 8.154 89.9772 8.718C90.1572 9.27 90.3312 9.81 90.4992 10.338C90.6792 10.866 90.8532 11.346 91.0212 11.778C91.1772 11.346 91.3452 10.866 91.5252 10.338C91.7052 9.81 91.8792 9.27 92.0472 8.718C92.2272 8.154 92.3952 7.602 92.5512 7.062C92.7192 6.51 92.8632 6 92.9832 5.532H95.7552C95.1912 7.428 94.5912 9.18 93.9552 10.788C93.3312 12.396 92.7132 13.8 92.1012 15H89.8692ZM102.56 18.33H99.8059L105.854 0.905999H108.572L102.56 18.33ZM117.437 10.734L109.697 13.992L108.995 11.814L114.647 9.618L108.995 7.422L109.697 5.244L117.437 8.502V10.734Z" fill="white"/>
</svg>
